<svg width="183" height="174" viewBox="0 0 183 174" fill="none" xmlns="http://www.w3.org/2000/svg">
<path d="M71.6449 1.87035C72.1413 0.70342 73.3074 -0.0391925 74.5793 0.00159942L107.362 1.05299L39.7842 162.674C36.9129 169.541 30.172 174.01 22.7025 174L3.0781 173.972C0.874885 173.969 -0.612248 171.73 0.247191 169.71L71.6449 1.87035Z" fill="#0065DB"/>
<path d="M91.2489 10.1692L128.65 10.5941L126.829 169.593C126.809 171.286 125.415 172.643 123.715 172.624L92.4714 172.269C90.771 172.25 89.4082 170.861 89.4276 169.168L91.2489 10.1692Z" fill="#0065DB"/>
<path d="M75.5361 0.21239H179.921C181.621 0.21239 183 1.58533 183 3.27893V8.79871C183 18.9603 174.728 27.198 164.525 27.198H75.5361V0.21239Z" fill="#0065DB"/>
<path d="M51.2104 107.848H90.6241L51.2104 122.261V107.848Z" fill="#0065DB"/>
</svg>
